HIERARCHY
ROOT Hips
{
	OFFSET 0.000000 0.000000 0.000000
	CHANNELS 6 Xposition Yposition Zposition Zrotation Yrotation Xrotation 
	JOINT LHipJoint
	{
		OFFSET 0.000000 0.000000 0.000000
		CHANNELS 3 Zrotation Yrotation Xrotation
		JOINT LeftUpLeg
		{
			OFFSET 1.363060 -1.794630 0.839290
			CHANNELS 3 Zrotation Yrotation Xrotation
			JOINT LeftLeg
			{
				OFFSET 2.448110 -6.726130 0.000000
				CHANNELS 3 Zrotation Yrotation Xrotation
				JOINT LeftFoot
				{
					OFFSET 2.562200 -7.039590 0.000000
					CHANNELS 3 Zrotation Yrotation Xrotation
					JOINT LeftToeBase
					{
						OFFSET 0.157640 -0.433110 2.322550
						CHANNELS 3 Zrotation Yrotation Xrotation
						End Site
						{
							OFFSET 0.000000 0.000000 0.000000
						}
					}
				}
			}
		}
	}
	JOINT RHipJoint
	{
		OFFSET 0.000000 0.000000 0.000000
		CHANNELS 3 Zrotation Yrotation Xrotation
		JOINT RightUpLeg
		{
			OFFSET -1.305520 -1.794630 0.839290
			CHANNELS 3 Zrotation Yrotation Xrotation
			JOINT RightLeg
			{
				OFFSET -2.542530 -6.985550 0.000000
				CHANNELS 3 Zrotation Yrotation Xrotation
				JOINT RightFoot
				{
					OFFSET -2.568260 -7.056230 0.000000
					CHANNELS 3 Zrotation Yrotation Xrotation
					JOINT RightToeBase
					{
						OFFSET -0.164730 -0.452590 2.363150
						CHANNELS 3 Zrotation Yrotation Xrotation
						End Site
						{
							OFFSET 0.000000 0.000000 0.000000
						}
					}
				}
			}
		}
	}
	JOINT LowerBack
	{
		OFFSET 0.000000 0.000000 0.000000
		CHANNELS 3 Zrotation Yrotation Xrotation
		JOINT Spine
		{
			OFFSET 0.028270 2.035590 -0.193380
			CHANNELS 3 Zrotation Yrotation Xrotation
			JOINT Spine1
			{
				OFFSET 0.056720 2.048850 -0.042750
				CHANNELS 3 Zrotation Yrotation Xrotation
				JOINT Neck
				{
					OFFSET 0.000000 0.000000 0.000000
					CHANNELS 3 Zrotation Yrotation Xrotation
					JOINT Neck1
					{
						OFFSET -0.054170 1.746240 0.172020
						CHANNELS 3 Zrotation Yrotation Xrotation
						JOINT Head
						{
							OFFSET 0.104070 1.761360 -0.123970
							CHANNELS 3 Zrotation Yrotation Xrotation
							End Site
							{
								OFFSET 0.000000 0.000000 0.000000
							}
						}
					}
				}
				JOINT LeftShoulder
				{
					OFFSET 0.000000 0.000000 0.000000
					CHANNELS 3 Zrotation Yrotation Xrotation
					JOINT LeftArm
					{
						OFFSET 3.362410 1.200890 -0.311210
						CHANNELS 3 Zrotation Yrotation Xrotation
						JOINT LeftForeArm
						{
							OFFSET 4.983000 -0.000000 -0.000000
							CHANNELS 3 Zrotation Yrotation Xrotation
							JOINT LeftHand
							{
								OFFSET 3.483560 -0.000000 -0.000000
								CHANNELS 3 Zrotation Yrotation Xrotation
								JOINT LeftFingerBase
								{
									OFFSET 0.000000 0.000000 0.000000
									CHANNELS 3 Zrotation Yrotation Xrotation
									JOINT LeftHandIndex1
									{
										OFFSET 0.715260 -0.000000 -0.000000
										CHANNELS 3 Zrotation Yrotation Xrotation
										End Site
										{
											OFFSET 0.000000 0.000000 0.000000
										}
									}
								}
								JOINT LThumb
								{
									OFFSET 0.000000 0.000000 0.000000
									CHANNELS 3 Zrotation Yrotation Xrotation
									End Site
									{
										OFFSET 0.000000 0.000000 0.000000
									}
								}
							}
						}
					}
				}
				JOINT RightShoulder
				{
					OFFSET 0.000000 0.000000 0.000000
					CHANNELS 3 Zrotation Yrotation Xrotation
					JOINT RightArm
					{
						OFFSET -3.136600 1.374050 -0.404650
						CHANNELS 3 Zrotation Yrotation Xrotation
						JOINT RightForeArm
						{
							OFFSET -5.241900 -0.000000 -0.000000
							CHANNELS 3 Zrotation Yrotation Xrotation
							JOINT RightHand
							{
								OFFSET -3.444170 -0.000000 -0.000000
								CHANNELS 3 Zrotation Yrotation Xrotation
								JOINT RightFingerBase
								{
									OFFSET 0.000000 0.000000 0.000000
									CHANNELS 3 Zrotation Yrotation Xrotation
									JOINT RightHandIndex1
									{
										OFFSET -0.622530 -0.000000 -0.000000
										CHANNELS 3 Zrotation Yrotation Xrotation
										End Site
										{
											OFFSET 0.000000 0.000000 0.000000
										}
									}
								}
								JOINT RThumb
								{
									OFFSET 0.000000 0.000000 0.000000
									CHANNELS 3 Zrotation Yrotation Xrotation
									End Site
									{
										OFFSET 0.000000 0.000000 0.000000
									}
								}
							}
						}
					}
				}
			}
		}
	}
}
MOTION
Frames: 4
Frame Time: 0.008333
-1.161609 18.374124 21.462177 176.290553 3.421732 -155.336195 22.059869 5.945185 -1.331200 -50.668325 -17.931240 -13.090620 2.453904 3.726525 9.145876 -0.874135 -12.714498 -31.076597 4.105200 -12.299100 -36.798500 -27.156956 -6.924695 -0.209176 45.938274 22.586633 -14.561352 -3.142258 -4.305724 11.029966 -1.073355 9.140781 -35.216934 -4.223700 12.452300 -37.351500 -6.215201 -2.724679 -21.182544 1.120400 -2.105553 -5.013153 -0.438939 -2.166369 17.242379 -12.799123 -7.116430 -4.426045 10.844808 -10.221147 38.591199 1.180100 -2.343900 7.712500 17.196695 -2.620007 1.314760 -107.888197 -6.565767 17.245344 16.106462 -16.217255 -2.143832 -0.520829 0.397591 4.211080 22.701801 -12.002935 -5.248900 -7.125000 0.000000 0.000000 -2.767100 16.589000 1.864100 -10.974507 2.247353 1.237039 102.535216 -1.097816 13.334714 -19.851600 29.503733 -4.786723 0.017611 -0.236679 -1.877770 -11.287472 -59.419161 9.735100 7.125000 0.000000 0.000000 91.761800 -75.955900 -77.337400 
-1.160281 18.372898 21.460338 176.544988 3.376422 -155.100271 22.091030 5.889448 -1.324122 -50.290470 -18.347731 -13.325436 2.460649 3.821528 9.349899 -0.765513 -12.483959 -31.292028 3.732500 -11.795700 -35.012900 -27.187983 -6.887742 -0.134622 46.154286 22.945816 -14.765435 -3.099727 -4.357641 11.017626 -1.067933 8.870449 -34.911027 -4.371800 12.639300 -38.032900 -5.856244 -2.613095 -21.382633 1.050579 -2.060181 -5.206052 -0.663437 -2.101540 17.233044 -12.583369 -7.151364 -4.143103 10.770725 -10.310499 38.448319 1.112400 -2.387800 7.621200 17.230205 -2.623609 1.325557 -107.718277 -6.325857 17.700105 16.217535 -16.380939 -2.188313 -0.533182 0.379618 3.778082 22.947493 -11.866280 -5.248600 -7.125000 0.000000 0.000000 -2.583000 16.727500 1.732000 -10.976437 2.225885 1.243819 102.793175 -1.307010 13.109944 -19.944388 29.641001 -4.839503 0.017956 -0.237283 -1.915224 -12.109357 -58.892935 10.392200 7.125000 0.000000 0.000000 89.815500 -76.298700 -75.699500 
-1.157624 18.372694 21.457272 176.731654 3.327604 -154.910880 22.104579 5.876848 -1.340070 -50.028160 -18.442130 -13.532655 2.472207 3.854472 9.390359 -0.741454 -12.380764 -31.282732 3.939000 -12.078800 -36.011300 -27.195857 -6.878861 -0.075842 46.308434 23.133790 -14.953461 -3.067711 -4.385486 11.024235 -1.068885 8.943299 -35.085115 -4.169900 12.383100 -37.101200 -5.580720 -2.505334 -21.565435 0.968764 -1.993104 -5.376486 -0.837677 -2.035390 17.244978 -12.349870 -7.191298 -3.833222 10.631350 -10.384047 38.279604 1.031300 -2.433900 7.519700 17.256614 -2.635050 1.331911 -107.576615 -6.169843 17.970637 16.261806 -16.441873 -2.208187 -0.535709 0.379518 3.662059 23.023203 -11.965042 -5.309900 -7.125000 0.000000 0.000000 -2.534200 16.612600 1.705600 -10.979464 2.209413 1.249945 103.011992 -1.494369 12.992762 -20.001771 29.730944 -4.876141 0.017957 -0.238908 -2.146130 -13.455720 -58.156184 11.467200 7.125000 0.000000 0.000000 87.002300 -76.831800 -73.410900 
-1.155478 18.371978 21.455024 176.953285 3.274621 -154.631876 22.122661 5.857977 -1.342851 -49.695098 -18.634793 -13.853841 2.481679 3.906081 9.451954 -0.686561 -12.219174 -31.353803 4.138400 -12.342300 -36.953900 -27.203170 -6.873719 0.006641 46.459502 23.388243 -15.276074 -3.030801 -4.455960 11.096766 -1.057582 8.927764 -35.130969 -4.139200 12.343300 -36.957600 -5.265293 -2.403210 -21.871607 0.901132 -1.943225 -5.551017 -1.044358 -1.975141 17.327550 -12.121685 -7.377608 -3.547087 10.570915 -10.679398 38.298186 0.939800 -2.566800 7.463700 17.294692 -2.647041 1.335851 -107.440813 -6.035934 18.155292 16.298119 -16.495226 -2.224649 -0.536360 0.382650 3.602958 23.066449 -12.120012 -5.387900 -7.125000 0.000000 0.000000 -2.512100 16.437000 1.700300 -10.974940 2.188279 1.252201 103.208812 -1.670282 12.980220 -20.046853 29.806201 -4.908140 0.018078 -0.240899 -2.313994 -14.697819 -57.424206 12.438100 7.125000 0.000000 0.000000 84.023100 -77.312600 -70.939800 
